<?xml version="1.0" standalone="no"?>
<!DOCTYPE svg PUBLIC "-//W3C//DTD SVG 20010904//EN"
 "http://www.w3.org/TR/2001/REC-SVG-20010904/DTD/svg10.dtd">
<svg version="1.0" xmlns="http://www.w3.org/2000/svg"
 width="500.000000pt" height="500.000000pt" viewBox="0 0 500.000000 500.000000"
 preserveAspectRatio="xMidYMid meet">
<metadata>
Created by potrace 1.11, written by Peter Selinger 2001-2013
</metadata>
<g transform="translate(0.000000,500.000000) scale(0.100000,-0.100000)"
fill="#000000" stroke="none">
<path d="M2 2498 l3 -2503 2 2497 3 2498 2498 3 2497 2 -2502 3 -2503 2 2
-2502z"/>
<path d="M2350 4354 c-161 -10 -367 -44 -505 -85 -155 -46 -274 -120 -312
-193 -23 -43 -27 -172 -14 -386 16 -256 42 -370 87 -370 8 0 66 22 127 49 168
75 272 103 403 108 181 9 276 -33 331 -145 25 -52 28 -67 27 -162 0 -87 -5
-116 -26 -172 -36 -96 -95 -194 -208 -348 -113 -154 -172 -252 -208 -348 -22
-57 -26 -84 -26 -177 0 -116 12 -171 44 -200 19 -17 25 -17 118 -1 54 9 146
16 205 16 116 0 171 14 180 47 3 10 8 48 12 85 14 139 117 274 302 393 51 33
126 82 167 108 212 137 343 333 402 602 26 122 24 362 -4 478 -73 295 -287
525 -589 633 -142 51 -343 77 -513 68z"/>
<path d="M2292 1759 c-157 -27 -295 -152 -344 -313 -47 -156 -2 -334 116 -452
256 -255 689 -109 747 254 49 303 -215 563 -519 511z"/>
</g>
</svg>
